<svg xmlns="http://www.w3.org/2000/svg" data-name="Layer 1" width="649.6753540039062" height="516.2316284179688" style=""><rect id="backgroundrect" width="100%" height="100%" x="0" y="0" fill="none" stroke="none"/><g class="currentLayer" style=""><title>Layer 1</title><path d="M484.63355700195314,510.0306642089844 c-8.99256,-7.59865 -14.45479,-19.60227 -13.02232,-31.28789 s10.30472,-22.42829 21.81332,-24.90978 s24.62761,4.3876800000000005 28.12315,15.62987 c1.9237600000000001,-21.674500000000002 4.14055,-44.25714 15.66409,-62.715 c10.43429,-16.71314 28.50667,-28.672 48.09305,-30.81147 s40.20832,5.941 52.42363,21.40027 s15.20618,37.93388 6.6509,55.68241 c-6.30238,13.07474 -17.91359,22.80511 -30.07923,30.72128 a194.12948,194.12948 0 0 1 -132.77224,29.04621 " fill="#f2f2f2" id="svg_1"/><path d="M618.3598470019531,382.32529420898436 a317.62446,317.62446 0 0 0 -44.26411,43.95415 a318.55051,318.55051 0 0 0 -49.85571,83.314 c-0.8977400000000002,2.19991 2.6745400000000004,3.15752 3.56229,0.98208 a316.7584,316.7584 0 0 1 93.16976,-125.638 c1.8443,-1.5018 -0.7831400000000001,-4.10164 -2.6122300000000003,-2.6122300000000003 z" fill="#fff" id="svg_2"/><path d="M158.83767700195312,515.2316242089844 H107.83767700195312 a6.50745,6.50745 0 0 1 -6.5,-6.5 v-106 a6.50745,6.50745 0 0 1 6.5,-6.5 h51 a6.50745,6.50745 0 0 1 6.5,6.5 v106 A6.50745,6.50745 0 0 1 158.83767700195312,515.2316242089844 z" fill="#ffffff" id="svg_3" class="" fill-opacity="1" stroke="#000000" stroke-opacity="1"/><path d="M279.83775700195315,516.2316242089844 h-51 a7.50836,7.50836 0 0 1 -7.5,-7.5 v-206 a7.50836,7.50836 0 0 1 7.5,-7.5 h51 a7.50836,7.50836 0 0 1 7.5,7.5 v206 A7.50836,7.50836 0 0 1 279.83775700195315,516.2316242089844 zm-51,-219 a5.50623,5.50623 0 0 0 -5.5,5.5 v206 a5.50622,5.50622 0 0 0 5.5,5.5 h51 a5.50622,5.50622 0 0 0 5.5,-5.5 v-206 a5.50622,5.50622 0 0 0 -5.5,-5.5 z" fill="#3f3d56" id="svg_4"/><path d="M400.83775700195315,516.2316242089844 h-51 a7.50836,7.50836 0 0 1 -7.5,-7.5 v-337 a7.50836,7.50836 0 0 1 7.5,-7.5 h51 a7.50836,7.50836 0 0 1 7.5,7.5 v337 A7.50836,7.50836 0 0 1 400.83775700195315,516.2316242089844 zm-51,-350 a5.50623,5.50623 0 0 0 -5.5,5.5 v337 a5.50622,5.50622 0 0 0 5.5,5.5 h51 a5.50622,5.50622 0 0 0 5.5,-5.5 v-337 a5.50622,5.50622 0 0 0 -5.5,-5.5 z" fill="#3f3d56" id="svg_5"/><path d="M522.9671570019531,515.7316242089844 h-51 a6.50753,6.50753 0 0 1 -6.5,-6.5 v-475 a6.50753,6.50753 0 0 1 6.5,-6.5 h51 a6.50753,6.50753 0 0 1 6.5,6.5 v475 A6.50753,6.50753 0 0 1 522.9671570019531,515.7316242089844 z" fill="#ffffff" id="svg_6" class="" fill-opacity="1" stroke="#000000" stroke-opacity="1"/><path d="M205.77936700195312,222.3582842089844 a10.05581,10.05581 0 0 0 -10.48188,-11.30867 L177.52087700195312,178.44050420898435 l-4,14 l12.17889,29.88574 a10.11027,10.11027 0 0 0 20.0796,0.03200000000000001 z" fill="#a0616a" id="svg_7"/><polygon points="68.816 351.113 78.717 358.342 111.312 323.589 96.698 312.92 68.816 351.113" fill="#a0616a" id="svg_8"/><path d="M374.7193491345215,1571.0843045507813 H413.2500691345215 a0,0 0 0 1 0,0 v14.88687 a0,0 0 0 1 0,0 H389.6061991345215 a14.88686,14.88686 0 0 1 -14.88686,-14.88686 v0 A0,0 0 0 1 374.7193491345215,1571.0843045507813 z" transform="rotate(-143.86854553222656 38.892269134521456,1022.5374145507814) " fill="#2f2e41" id="svg_9"/><polygon points="121.201 389.377 133.461 389.376 139.293 342.088 121.199 342.089 121.201 389.377" fill="#a0616a" id="svg_10"/><path d="M944.6053213085938,1556.2565224023438 h38.53073 a0,0 0 0 1 0,0 v14.88687 a0,0 0 0 1 0,0 H959.4921813085937 a14.88686,14.88686 0 0 1 -14.88686,-14.88686 v0 A0,0 0 0 1 944.6053213085938,1556.2565224023438 z" transform="rotate(179.99737548828125 550.8685913085939,978.4989624023436) " fill="#2f2e41" id="svg_11"/><path d="M158.02087700195312,204.94050420898435 s6,58 -9,98 l-11,76 h-19 l2,-90 l-7,-80 S128.02087700195312,172.94050420898435 158.02087700195312,204.94050420898435 z" fill="#2f2e41" id="svg_12"/><polygon points="93.021 208.94 113.021 277.94 74.021 339.94 93.521 356.44 138.021 286.94 125.021 201.94 93.021 208.94" fill="#2f2e41" id="svg_13"/><circle cx="144.0248260498047" cy="29.653099060058594" r="24.5610294342041" fill="#a0616a" id="svg_14"/><path d="M123.52087700195312,63.44050420898438 s15,-10 32,12 l4.5,138.5 s-13,-18 -40,-1 s-33,-2 -33,-2 S68.02087700195312,67.94050420898435 123.52087700195312,63.44050420898438 z" fill="#ccc" id="svg_15"/><path d="M154.31094700195314,75.09131420898439 h0 a17.50586,17.50586 0 0 1 16.53679,16.56026 l3.1731,60.28892 l21,57 l-12,10 l-39,-68 l-7.98473,-55.89313 A17.50587,17.50587 0 0 1 154.31094700195314,75.09131420898439 z" fill="#ccc" id="svg_16"/><path d="M125.97776700195311,48.07636420898439 c4.01526,4.27712 11.47215,1.9810599999999998 11.99535,-3.86208 a7.05905,7.05905 0 0 0 -0.008890000000000002,-1.36328 c-0.27013,-2.58827 -1.76543,-4.9381 -1.40725,-7.67094 a4.02264,4.02264 0 0 1 0.7362000000000001,-1.88313 c3.19965,-4.28461 10.71059,1.9163999999999999 13.73032,-1.9623300000000001 c1.85163,-2.37835 -0.32494000000000006,-6.12294 1.096,-8.78115 c1.8753700000000002,-3.5084 7.43013,-1.7777 10.91355,-3.6990700000000003 c3.8757400000000004,-2.13777 3.64392,-8.08425 1.0926500000000001,-11.7012 c-3.11139,-4.411 -8.56664,-6.76475 -13.95392,-7.104 s-10.73745,1.1170900000000001 -15.767,3.07715 c-5.71454,2.227 -11.38133,5.3048 -14.898,10.32961 c-4.27662,6.11072 -4.68817,14.326 -2.54936,21.47132 C118.25850700195315,39.27386420898438 122.69887700195312,44.58364420898437 125.97776700195311,48.07636420898439 z" fill="#2f2e41" id="svg_17"/><path d="M648.4846770019532,515.8072842089844 H1.1906770019531336 a1.19069,1.19069 0 0 1 0,-2.38137 H648.4846770019532 a1.19069,1.19069 0 0 1 0,2.38137 z" fill="#3f3d56" id="svg_18"/></g></svg>