<?xml version="1.0" standalone="no"?>
<!DOCTYPE svg PUBLIC "-//W3C//DTD SVG 20010904//EN"
 "http://www.w3.org/TR/2001/REC-SVG-20010904/DTD/svg10.dtd">
<svg version="1.0" xmlns="http://www.w3.org/2000/svg"
 width="512.000000pt" height="512.000000pt" viewBox="0 0 512.000000 512.000000"
 preserveAspectRatio="xMidYMid meet">
<metadata>
Created by potrace 1.16, written by Peter Selinger 2001-2019
</metadata>
<g transform="translate(0.000000,512.000000) scale(0.100000,-0.100000)"
fill="#000000" stroke="none">
<path d="M2680 5104 c-219 -57 -403 -245 -454 -464 -9 -36 -16 -80 -16 -97 l0
-33 -598 0 c-678 0 -646 4 -689 -80 l-23 -44 0 -612 0 -612 -68 -7 c-175 -17
-289 -71 -407 -189 -120 -121 -172 -236 -181 -406 -12 -190 45 -340 181 -476
118 -118 237 -174 403 -190 l72 -7 0 -611 c0 -578 1 -613 19 -653 38 -82 -2
-77 685 -83 l609 -5 14 -60 c49 -215 237 -404 458 -460 76 -19 234 -19 310 0
221 56 409 245 458 460 l14 60 661 5 c648 5 661 5 689 26 15 11 36 36 45 55
17 31 18 89 18 767 0 715 0 734 -20 772 -25 50 -87 84 -139 77 -20 -2 -65 -12
-100 -22 -193 -52 -386 88 -399 290 -14 227 209 395 427 321 95 -33 180 -6
215 68 14 30 16 111 16 768 0 817 3 777 -69 825 l-34 23 -653 0 -654 0 0 33
c0 55 -29 159 -67 236 -50 104 -169 224 -273 274 -41 20 -102 44 -135 52 -75
19 -241 19 -315 -1z m298 -325 c75 -37 134 -102 162 -175 23 -62 25 -122 8
-205 -11 -52 -10 -60 13 -105 15 -31 37 -56 59 -69 34 -19 54 -20 693 -23
l657 -3 0 -518 0 -518 -97 -12 c-161 -19 -281 -80 -393 -197 -122 -129 -177
-281 -167 -463 6 -114 32 -202 85 -289 103 -172 275 -281 479 -305 l93 -11 0
-523 0 -523 -664 -2 -664 -3 -27 -25 c-44 -41 -55 -73 -55 -159 0 -145 -62
-250 -182 -310 -52 -27 -72 -31 -138 -31 -66 0 -86 4 -138 31 -120 60 -182
165 -182 310 0 90 -12 122 -60 163 l-32 26 -609 0 -609 0 0 641 c0 708 2 685
-64 732 -39 28 -104 29 -198 3 -58 -16 -76 -17 -124 -7 -113 22 -202 90 -247
189 -33 73 -31 189 6 264 72 146 241 217 396 164 96 -33 176 -9 213 65 17 31
18 84 18 671 l0 637 608 3 c673 3 644 0 693 69 24 34 27 69 14 199 -6 64 -4
84 14 131 29 76 88 141 163 178 52 27 72 31 138 31 66 0 86 -4 138 -31z"/>
<path d="M2024 3276 c-69 -30 -101 -107 -79 -189 30 -114 406 -1234 424 -1263
50 -81 194 -85 248 -8 11 16 66 153 123 304 56 151 104 276 105 278 1 1 53
-121 115 -272 61 -150 120 -287 130 -303 48 -80 193 -83 247 -7 17 23 382
1188 407 1298 13 56 -27 131 -86 162 -58 30 -151 8 -191 -47 -10 -14 -72 -199
-137 -411 -64 -212 -122 -398 -127 -413 -8 -26 -18 -6 -102 201 -125 307 -136
329 -175 353 -43 27 -126 28 -168 4 -43 -26 -55 -51 -159 -330 l-94 -253 -140
419 c-80 239 -149 429 -160 441 -42 47 -120 62 -181 36z"/>
</g>
</svg>
