<?xml version="1.0" standalone="no"?>
<!DOCTYPE svg PUBLIC "-//W3C//DTD SVG 20010904//EN"
 "http://www.w3.org/TR/2001/REC-SVG-20010904/DTD/svg10.dtd">
<svg version="1.0" xmlns="http://www.w3.org/2000/svg"
 width="512.000000pt" height="512.000000pt" viewBox="0 0 512.000000 512.000000"
 preserveAspectRatio="xMidYMid meet">

<g transform="translate(0.000000,512.000000) scale(0.100000,-0.100000)"
fill="#000000" stroke="none">
<path d="M2410 4943 c-957 -70 -1757 -698 -2045 -1604 -188 -592 -124 -1251
174 -1797 349 -638 973 -1070 1701 -1176 434 -63 899 9 1305 203 251 120 433
249 636 451 359 358 577 790 656 1300 12 83 17 174 17 325 0 227 -14 352 -60
544 -213 874 -926 1548 -1813 1716 -181 35 -411 50 -571 38z m74 -665 c3 -29
6 -110 6 -180 0 -115 2 -130 20 -148 23 -23 68 -26 96 -6 17 13 19 31 24 198
l5 183 75 -3 c92 -3 256 -35 372 -73 104 -34 248 -98 248 -111 0 -5 -20 -44
-45 -87 -25 -43 -45 -88 -45 -100 0 -55 46 -88 98 -70 20 7 41 32 77 94 27 47
53 85 59 85 20 0 197 -143 281 -227 78 -79 165 -185 209 -255 l17 -26 -66 -37
c-125 -70 -151 -111 -106 -166 29 -36 74 -30 164 24 44 26 82 45 87 42 4 -3
29 -54 54 -114 69 -162 107 -320 130 -538 l4 -43 -173 0 c-95 0 -181 -3 -190
-6 -8 -4 -23 -20 -31 -36 -13 -25 -13 -35 -3 -59 6 -17 20 -34 30 -39 10 -6
96 -10 192 -10 l175 0 -4 -42 c-23 -219 -61 -377 -130 -539 -25 -60 -50 -111
-54 -114 -5 -3 -44 16 -87 41 -90 55 -135 61 -164 25 -22 -26 -24 -68 -6 -92
7 -9 49 -37 95 -63 l83 -48 -17 -27 c-44 -69 -132 -176 -211 -256 -84 -84
-259 -225 -280 -225 -5 0 -28 33 -52 74 -51 89 -72 109 -113 109 -37 0 -68
-32 -68 -71 0 -14 20 -60 45 -103 25 -43 45 -82 45 -87 0 -13 -145 -78 -252
-113 -116 -38 -273 -68 -368 -71 l-75 -3 -5 183 c-5 167 -7 185 -24 198 -28
20 -73 17 -96 -6 -18 -18 -20 -33 -20 -147 0 -71 -3 -152 -7 -182 l-6 -53 -75
7 c-108 10 -283 48 -387 84 -104 36 -225 91 -225 101 0 4 20 43 45 86 61 108
58 157 -11 178 -40 12 -70 -13 -120 -100 -27 -46 -51 -84 -55 -84 -3 0 -39 23
-80 52 -130 91 -328 298 -413 430 l-17 26 77 43 c95 52 114 70 114 109 0 36
-39 80 -70 80 -11 0 -60 -22 -107 -50 -48 -27 -91 -46 -96 -41 -15 15 -104
246 -125 326 -26 99 -50 232 -53 305 l-3 55 182 5 c204 6 216 10 216 75 0 65
-12 69 -217 75 l-181 5 2 50 c4 79 32 232 59 325 26 91 99 280 117 305 9 13
23 8 96 -35 47 -27 95 -50 108 -50 33 0 72 43 72 80 0 39 -19 57 -114 109
l-77 43 17 26 c85 132 283 339 413 430 41 29 77 52 80 52 4 0 28 -38 55 -84
62 -106 97 -127 150 -85 39 31 34 70 -19 161 -25 43 -45 81 -45 86 0 13 139
74 250 110 137 44 299 76 406 81 30 1 31 0 38 -51z"/>
<path d="M2459 3413 c-35 -18 -64 -43 -84 -71 l-30 -44 -3 -213 -3 -214 -327
-3 c-314 -3 -329 -4 -368 -25 -101 -54 -144 -155 -113 -268 15 -56 92 -128
152 -143 31 -8 185 -12 485 -12 l440 0 53 28 c34 17 65 44 84 71 l30 43 0 368
0 368 -30 44 c-38 55 -119 98 -185 98 -31 0 -65 -9 -101 -27z"/>
</g>
</svg>
